<?xml version="1.0" encoding="UTF-8" standalone="no"?>
<!DOCTYPE svg PUBLIC "-//W3C//DTD SVG 1.1//EN" "http://www.w3.org/Graphics/SVG/1.1/DTD/svg11.dtd">
<svg width="100%" height="100%" viewBox="0 0 700 600" version="1.1" xmlns="http://www.w3.org/2000/svg" xmlns:xlink="http://www.w3.org/1999/xlink" xml:space="preserve" xmlns:serif="http://www.serif.com/" style="fill-rule:evenodd;clip-rule:evenodd;stroke-linecap:round;stroke-linejoin:round;stroke-miterlimit:1.5;">
    <g id="Artboard1" transform="matrix(1,0,0,1,-200,-200)">
        <rect x="200" y="200" width="700" height="600" style="fill:none;"/>
        <g transform="matrix(0.64119,0,0,0.64119,212.352,89.2141)">
            <g id="D">
                <g>
                    <g transform="matrix(0.794232,0,0,0.794232,-46.2108,263.105)">
                        <path d="M455.302,427.032C589.346,427.032 698.184,537.259 698.184,673.04C698.184,808.822 589.346,919.049 455.302,919.049C321.258,919.049 212.42,808.822 212.42,673.04C212.42,537.259 321.258,427.032 455.302,427.032Z" style="fill:none;stroke:rgb(144,0,0);stroke-width:163.64px;"/>
                    </g>
                    <g transform="matrix(0.822199,0,0,0.822199,32.5661,219.138)">
                        <rect x="578.979" y="106.422" width="3.438" height="594.086" style="fill:none;stroke:rgb(144,0,0);stroke-width:158.07px;"/>
                    </g>
                </g>
            </g>
        </g>
        <g transform="matrix(0.64119,0,0,0.64119,502.59,-214.788)">
            <g id="R">
                <g>
                    <g transform="matrix(-0.794232,-9.72654e-17,9.72654e-17,-0.794232,802.404,1757.15)">
                        <path d="M696.405,673.04C696.405,807.834 588.37,917.269 455.302,917.269C447.408,917.269 439.603,916.884 431.902,916.131" style="fill:none;stroke:rgb(0,0,144);stroke-width:163.64px;"/>
                    </g>
                    <g transform="matrix(0.822199,0,0,0.822199,-229.566,890.869)">
                        <rect x="578.979" y="106.422" width="3.438" height="594.086" style="fill:none;stroke:rgb(0,0,144);stroke-width:158.07px;"/>
                    </g>
                </g>
            </g>
        </g>
    </g>
</svg>
