<?xml version="1.0" encoding="UTF-8" standalone="no"?>
<!DOCTYPE svg PUBLIC "-//W3C//DTD SVG 1.1//EN" "http://www.w3.org/Graphics/SVG/1.1/DTD/svg11.dtd">
<svg width="100%" height="100%" viewBox="0 0 796 800" version="1.1" xmlns="http://www.w3.org/2000/svg" xmlns:xlink="http://www.w3.org/1999/xlink" xml:space="preserve" xmlns:serif="http://www.serif.com/" style="fill-rule:evenodd;clip-rule:evenodd;stroke-linecap:round;stroke-linejoin:round;stroke-miterlimit:1.5;">
    <g transform="matrix(1,0,0,1,0,-985)">
        <g id="Scratch" transform="matrix(1,0,0,1,-204,785)">
            <rect x="204" y="200" width="796" height="800" style="fill:none;"/>
            <g transform="matrix(1,0,0,1.5,0,-299)">
                <path d="M400,601.333C400,527.745 489.617,468 600,468C638.08,468 673.689,475.11 704,487.447L704,400C704,382.339 725.508,368 752,368C778.492,368 800,382.339 800,400L800,600L799.99,600C799.997,600.444 800,600.888 800,601.333C800,629.101 787.241,654.897 765.421,676.256L851.578,775.742C860.94,786.552 849.913,802.497 826.971,811.328C804.028,820.158 777.801,818.552 768.44,807.742L692.171,719.674C664.582,729.252 633.232,734.667 600,734.667C561.92,734.667 526.311,727.556 496,715.22L496,801.333C496,818.995 474.492,833.333 448,833.333C421.508,833.333 400,818.995 400,801.333L400,601.333ZM496,601.333C496,638.864 541.705,669.333 598,669.333C654.295,669.333 700,638.864 700,601.333C700,563.803 654.295,533.333 598,533.333C541.705,533.333 496,563.803 496,601.333Z" style="fill:rgb(23,0,255);stroke:white;stroke-width:13.07px;"/>
            </g>
        </g>
    </g>
</svg>
