<?xml version="1.0" encoding="UTF-8" standalone="no"?>
<!DOCTYPE svg PUBLIC "-//W3C//DTD SVG 1.1//EN" "http://www.w3.org/Graphics/SVG/1.1/DTD/svg11.dtd">
<svg width="100%" height="100%" viewBox="0 0 1000 1000" version="1.1" xmlns="http://www.w3.org/2000/svg" xmlns:xlink="http://www.w3.org/1999/xlink" xml:space="preserve" xmlns:serif="http://www.serif.com/" style="fill-rule:evenodd;clip-rule:evenodd;stroke-linejoin:round;stroke-miterlimit:2;">
    <g transform="matrix(1,0,0,1,-2376,0)">
        <g id="Artboard5" transform="matrix(1,0,0,1,2276,-100)">
            <rect x="100" y="100" width="1000" height="1000" style="fill:none;"/>
            <g transform="matrix(4.59243e-17,0.75,-0.75,4.59243e-17,1050,148.398)">
                <path d="M717.347,141.327L1117.35,941.327C1137.68,981.996 1135.51,1030.3 1111.6,1068.97C1087.7,1107.65 1045.47,1131.2 1000,1131.2L200,1131.2C154.53,1131.2 112.302,1107.65 88.397,1068.97C64.492,1030.3 62.319,981.996 82.653,941.327L482.653,141.327C504.877,96.879 550.306,68.803 600,68.803C649.694,68.803 695.123,96.879 717.347,141.327Z"/>
            </g>
            <g transform="matrix(4.59243e-17,0.75,-0.75,4.59243e-17,1050,148.398)">
                <g id="DR-Triangle" serif:id="DR+Triangle">
                    <path d="M917.394,541.421L1117.35,941.327C1137.68,981.996 1135.51,1030.3 1111.6,1068.97C1087.7,1107.65 1045.47,1131.2 1000,1131.2L200,1131.2C154.53,1131.2 112.302,1107.65 88.397,1068.97C64.492,1030.3 62.319,981.996 82.653,941.327L179.984,746.667L366.296,746.667C346.773,777.547 335.469,814.13 335.469,853.333C335.469,963.716 425.086,1053.33 535.469,1053.33C645.852,1053.33 735.469,963.716 735.469,853.333C735.469,742.95 645.852,653.333 535.469,653.333L226.65,653.333L482.653,141.327C504.877,96.879 550.306,68.803 600,68.803C649.694,68.803 695.123,96.879 717.347,141.327L866.683,440L748.862,440C701.697,431.968 665.742,390.86 665.742,341.421C665.742,314.9 676.278,289.464 695.031,270.711L624.321,200C586.813,237.507 565.742,288.378 565.742,341.421C565.742,377.254 575.186,410.899 591.719,440L555.469,440L555.469,541.421L917.394,541.421ZM179.984,746.667L95.469,746.667L95.469,653.333L226.65,653.333L179.984,746.667ZM866.683,440L1002.14,440L1002.14,541.421L917.394,541.421L866.683,440ZM435.469,853.333C435.469,798.142 480.278,753.333 535.469,753.333C590.661,753.333 635.469,798.142 635.469,853.333C635.469,908.525 590.661,953.333 535.469,953.333C480.278,953.333 435.469,908.525 435.469,853.333Z" style="fill:rgb(0,255,251);"/>
                </g>
            </g>
        </g>
    </g>
</svg>
