<?xml version="1.0" encoding="UTF-8" standalone="no"?>
<!DOCTYPE svg PUBLIC "-//W3C//DTD SVG 1.1//EN" "http://www.w3.org/Graphics/SVG/1.1/DTD/svg11.dtd">
<svg width="100%" height="100%" viewBox="0 0 796 800" version="1.1" xmlns="http://www.w3.org/2000/svg" xmlns:xlink="http://www.w3.org/1999/xlink" xml:space="preserve" xmlns:serif="http://www.serif.com/" style="fill-rule:evenodd;clip-rule:evenodd;stroke-linejoin:round;stroke-miterlimit:2;">
    <g id="Artboard1" transform="matrix(1,0,0,1,-204,-200)">
        <rect x="204" y="200" width="796" height="800" style="fill:none;"/>
        <g transform="matrix(1,0,0,1,0,1)">
            <circle cx="600" cy="600" r="300" style="fill:rgb(255,241,209);"/>
        </g>
        <g id="DR1" transform="matrix(-1,-1.22465e-16,1.22465e-16,-1,1216.54,1217)">
            <g transform="matrix(-1,1.22465e-16,-1.83697e-16,-1.5,1200,1502)">
                <path d="M704,400C704,382.339 725.508,368 752,368C778.492,368 800,382.339 800,400L800,600L704,600L704,400Z"/>
            </g>
            <path d="M600,400C710.383,400 800,489.617 800,600C800,710.383 710.383,800 600,800C489.617,800 400,710.383 400,600C400,489.617 489.617,400 600,400ZM602,498C545.705,498 500,543.705 500,600C500,656.295 545.705,702 602,702C658.295,702 704,656.295 704,600C704,543.705 658.295,498 602,498Z"/>
            <g transform="matrix(1,0,0,1.5,0,-300)">
                <path d="M704,400C704,382.339 725.508,368 752,368C778.492,368 800,382.339 800,400L800,600L704,600L704,400Z"/>
            </g>
            <g transform="matrix(0.866025,-0.5,0.530046,0.918066,-473.278,323.161)">
                <path d="M704,400C704,382.339 725.508,368 752,368C778.492,368 800,382.339 800,400L800,600L704,600L704,400Z"/>
            </g>
        </g>
        <g id="DR2" transform="matrix(-1,-1.22465e-16,1.22465e-16,-1,1200,1203)">
            <g transform="matrix(-1,1.22465e-16,-1.83697e-16,-1.5,1200,1502)">
                <path d="M704,400C704,382.339 725.508,368 752,368C778.492,368 800,382.339 800,400L800,600L704,600L704,400Z" style="fill:rgb(32,230,26);"/>
            </g>
            <path d="M600,400C710.383,400 800,489.617 800,600C800,710.383 710.383,800 600,800C489.617,800 400,710.383 400,600C400,489.617 489.617,400 600,400ZM602,498C545.705,498 500,543.705 500,600C500,656.295 545.705,702 602,702C658.295,702 704,656.295 704,600C704,543.705 658.295,498 602,498Z" style="fill:rgb(32,230,26);"/>
            <g transform="matrix(1,0,0,1.5,0,-300)">
                <path d="M704,400C704,382.339 725.508,368 752,368C778.492,368 800,382.339 800,400L800,600L704,600L704,400Z" style="fill:rgb(32,230,26);"/>
            </g>
            <g transform="matrix(0.866025,-0.5,0.530046,0.918066,-473.278,323.161)">
                <path d="M704,400C704,382.339 725.508,368 752,368C778.492,368 800,382.339 800,400L800,600L704,600L704,400Z" style="fill:rgb(32,230,26);"/>
            </g>
        </g>
    </g>
</svg>
